<svg width="13" height="18" viewBox="0 0 13 18" fill="none" xmlns="http://www.w3.org/2000/svg">
<path d="M6.49935 17.3327C5.02713 17.3327 3.82574 17.1 2.89518 16.6348C1.96463 16.1695 1.49935 15.5688 1.49935 14.8327C1.49935 14.4993 1.60004 14.1903 1.80143 13.9056C2.00282 13.6209 2.28407 13.3743 2.64518 13.166L3.95768 14.3952C3.83268 14.4507 3.69727 14.5132 3.55143 14.5827C3.4056 14.6521 3.29102 14.7355 3.20768 14.8327C3.38824 15.0549 3.8049 15.2493 4.45768 15.416C5.11046 15.5827 5.79102 15.666 6.49935 15.666C7.20768 15.666 7.89171 15.5827 8.55143 15.416C9.21116 15.2493 9.63129 15.0549 9.81185 14.8327C9.71463 14.7216 9.58963 14.6313 9.43685 14.5618C9.28407 14.4924 9.13824 14.4299 8.99935 14.3743L10.291 13.1243C10.6799 13.3466 10.9785 13.6 11.1868 13.8848C11.3952 14.1695 11.4993 14.4855 11.4993 14.8327C11.4993 15.5688 11.0341 16.1695 10.1035 16.6348C9.17296 17.1 7.97157 17.3327 6.49935 17.3327ZM6.52018 12.7493C7.89518 11.7355 8.92991 10.7181 9.62435 9.69727C10.3188 8.67643 10.666 7.65213 10.666 6.62435C10.666 5.20768 10.2146 4.13824 9.31185 3.41602C8.40907 2.69379 7.47157 2.33268 6.49935 2.33268C5.52713 2.33268 4.58963 2.69379 3.68685 3.41602C2.78407 4.13824 2.33268 5.20768 2.33268 6.62435C2.33268 7.5549 2.67296 8.52365 3.35352 9.5306C4.03407 10.5375 5.08963 11.6105 6.52018 12.7493ZM6.49935 14.8327C4.54102 13.3882 3.07921 11.9855 2.11393 10.6243C1.14865 9.26324 0.666016 7.9299 0.666016 6.62435C0.666016 5.63824 0.843099 4.77365 1.19727 4.0306C1.55143 3.28754 2.00629 2.66602 2.56185 2.16602C3.1174 1.66602 3.7424 1.29102 4.43685 1.04102C5.13129 0.791016 5.81879 0.666016 6.49935 0.666016C7.1799 0.666016 7.86741 0.791016 8.56185 1.04102C9.25629 1.29102 9.88129 1.66602 10.4368 2.16602C10.9924 2.66602 11.4473 3.28754 11.8014 4.0306C12.1556 4.77365 12.3327 5.63824 12.3327 6.62435C12.3327 7.9299 11.85 9.26324 10.8848 10.6243C9.91949 11.9855 8.45768 13.3882 6.49935 14.8327ZM6.49935 8.16602C6.95768 8.16602 7.35004 8.00282 7.67643 7.67643C8.00282 7.35004 8.16602 6.95768 8.16602 6.49935C8.16602 6.04102 8.00282 5.64865 7.67643 5.32227C7.35004 4.99588 6.95768 4.83268 6.49935 4.83268C6.04102 4.83268 5.64866 4.99588 5.32227 5.32227C4.99588 5.64865 4.83268 6.04102 4.83268 6.49935C4.83268 6.95768 4.99588 7.35004 5.32227 7.67643C5.64866 8.00282 6.04102 8.16602 6.49935 8.16602Z" fill="#DD8D0C"/>
</svg>
