<svg width="65" height="66" viewBox="0 0 65 66" fill="none" xmlns="http://www.w3.org/2000/svg">
<rect y="0.5" width="65" height="65" rx="32.5" fill="#DD8D0C" fill-opacity="0.5"/>
<mask id="mask0_372_432" style="mask-type:alpha" maskUnits="userSpaceOnUse" x="7" y="8" width="51" height="50">
<rect x="7.5" y="8" width="50" height="50" fill="#D9D9D9"/>
</mask>
<g mask="url(#mask0_372_432)">
<path d="M49.0625 51.75C44.7222 51.75 40.434 50.8038 36.1979 48.9115C31.9618 47.0191 28.1076 44.3368 24.6354 40.8646C21.1632 37.3924 18.4809 33.5382 16.5885 29.3021C14.6962 25.066 13.75 20.7778 13.75 16.4375C13.75 15.8125 13.9583 15.2917 14.375 14.875C14.7917 14.4583 15.3125 14.25 15.9375 14.25H24.375C24.8611 14.25 25.2951 14.4149 25.6771 14.7448C26.059 15.0747 26.2847 15.4653 26.3542 15.9167L27.7083 23.2083C27.7778 23.7639 27.7604 24.2326 27.6562 24.6146C27.5521 24.9965 27.3611 25.3264 27.0833 25.6042L22.0312 30.7083C22.7257 31.9931 23.5503 33.2344 24.5052 34.4323C25.4601 35.6302 26.5104 36.7847 27.6562 37.8958C28.7326 38.9722 29.8611 39.9705 31.0417 40.8906C32.2222 41.8108 33.4722 42.6528 34.7917 43.4167L39.6875 38.5208C40 38.2083 40.408 37.974 40.9115 37.8177C41.4149 37.6615 41.9097 37.6181 42.3958 37.6875L49.5833 39.1458C50.0694 39.2847 50.4687 39.5365 50.7812 39.901C51.0937 40.2656 51.25 40.6736 51.25 41.125V49.5625C51.25 50.1875 51.0417 50.7083 50.625 51.125C50.2083 51.5417 49.6875 51.75 49.0625 51.75ZM20.0521 26.75L23.4896 23.3125L22.6042 18.4167H17.9688C18.1424 19.8403 18.3854 21.2465 18.6979 22.6354C19.0104 24.0243 19.4618 25.3958 20.0521 26.75ZM38.6979 45.3958C40.0521 45.9861 41.4323 46.4549 42.8385 46.8021C44.2448 47.1493 45.6597 47.375 47.0833 47.4792V42.8958L42.1875 41.9062L38.6979 45.3958Z" fill="black"/>
</g>
</svg>
