<svg width="65" height="65" viewBox="0 0 65 65" fill="none" xmlns="http://www.w3.org/2000/svg">
<rect width="65" height="65" rx="32.5" fill="#DD8D0C" fill-opacity="0.5"/>
<mask id="mask0_372_431" style="mask-type:alpha" maskUnits="userSpaceOnUse" x="7" y="7" width="51" height="51">
<rect x="7.5" y="7.5" width="50" height="50" fill="#D9D9D9"/>
</mask>
<g mask="url(#mask0_372_431)">
<path d="M15.8151 49.1673C14.6693 49.1673 13.6884 48.7593 12.8724 47.9434C12.0564 47.1274 11.6484 46.1465 11.6484 45.0006V20.0007C11.6484 18.8548 12.0564 17.8739 12.8724 17.0579C13.6884 16.242 14.6693 15.834 15.8151 15.834H49.1484C50.2943 15.834 51.2752 16.242 52.0911 17.0579C52.9071 17.8739 53.3151 18.8548 53.3151 20.0007V45.0006C53.3151 46.1465 52.9071 47.1274 52.0911 47.9434C51.2752 48.7593 50.2943 49.1673 49.1484 49.1673H15.8151ZM32.4818 34.584L15.8151 24.1673V45.0006H49.1484V24.1673L32.4818 34.584ZM32.4818 30.4173L49.1484 20.0007H15.8151L32.4818 30.4173ZM15.8151 24.1673V20.0007V45.0006V24.1673Z" fill="black"/>
</g>
</svg>
