<svg width="65" height="65" viewBox="0 0 65 65" fill="none" xmlns="http://www.w3.org/2000/svg">
<rect width="65" height="65" rx="32.5" fill="#DD8D0C" fill-opacity="0.5"/>
<mask id="mask0_372_430" style="mask-type:alpha" maskUnits="userSpaceOnUse" x="7" y="7" width="51" height="51">
<rect x="7.5" y="7.5" width="50" height="50" fill="#D9D9D9"/>
</mask>
<g mask="url(#mask0_372_430)">
<path d="M32.4818 53.3327C28.8012 53.3327 25.7977 52.7511 23.4714 51.5879C21.145 50.4247 19.9818 48.9229 19.9818 47.0827C19.9818 46.2493 20.2335 45.4768 20.737 44.765C21.2405 44.0532 21.9436 43.4368 22.8464 42.916L26.1276 45.9889C25.8151 46.1278 25.4766 46.2841 25.112 46.4577C24.7474 46.6313 24.4609 46.8396 24.2526 47.0827C24.704 47.6382 25.7457 48.1243 27.3776 48.541C29.0096 48.9577 30.7109 49.166 32.4818 49.166C34.2526 49.166 35.9627 48.9577 37.612 48.541C39.2613 48.1243 40.3116 47.6382 40.763 47.0827C40.52 46.8049 40.2075 46.5792 39.8255 46.4056C39.4436 46.232 39.079 46.0757 38.7318 45.9368L41.9609 42.8118C42.9332 43.3674 43.6797 44.0011 44.2005 44.7129C44.7214 45.4247 44.9818 46.2146 44.9818 47.0827C44.9818 48.9229 43.8186 50.4247 41.4922 51.5879C39.1658 52.7511 36.1623 53.3327 32.4818 53.3327ZM32.5339 41.8743C35.9714 39.3396 38.5582 36.7962 40.2943 34.2441C42.0304 31.6921 42.8984 29.1313 42.8984 26.5618C42.8984 23.0202 41.77 20.3466 39.513 18.541C37.2561 16.7355 34.9123 15.8327 32.4818 15.8327C30.0512 15.8327 27.7075 16.7355 25.4505 18.541C23.1936 20.3466 22.0651 23.0202 22.0651 26.5618C22.0651 28.8882 22.9158 31.3101 24.6172 33.8275C26.3186 36.3448 28.9575 39.0271 32.5339 41.8743ZM32.4818 47.0827C27.5859 43.4716 23.9314 39.9646 21.5182 36.5618C19.105 33.1591 17.8984 29.8257 17.8984 26.5618C17.8984 24.0966 18.3411 21.9351 19.2266 20.0775C20.112 18.2198 21.2491 16.666 22.638 15.416C24.0269 14.166 25.5894 13.2285 27.3255 12.6035C29.0616 11.9785 30.7804 11.666 32.4818 11.666C34.1832 11.666 35.9019 11.9785 37.638 12.6035C39.3741 13.2285 40.9366 14.166 42.3255 15.416C43.7144 16.666 44.8516 18.2198 45.737 20.0775C46.6224 21.9351 47.0651 24.0966 47.0651 26.5618C47.0651 29.8257 45.8585 33.1591 43.4453 36.5618C41.0321 39.9646 37.3776 43.4716 32.4818 47.0827ZM32.4818 30.416C33.6276 30.416 34.6085 30.008 35.4245 29.1921C36.2405 28.3761 36.6484 27.3952 36.6484 26.2493C36.6484 25.1035 36.2405 24.1226 35.4245 23.3066C34.6085 22.4907 33.6276 22.0827 32.4818 22.0827C31.3359 22.0827 30.355 22.4907 29.5391 23.3066C28.7231 24.1226 28.3151 25.1035 28.3151 26.2493C28.3151 27.3952 28.7231 28.3761 29.5391 29.1921C30.355 30.008 31.3359 30.416 32.4818 30.416Z" fill="black"/>
</g>
</svg>
