<svg width="17" height="18" viewBox="0 0 17 18" fill="none" xmlns="http://www.w3.org/2000/svg">
<path d="M8.49935 17.3327C7.36046 17.3327 6.28407 17.1139 5.27018 16.6764C4.25629 16.2389 3.37088 15.6417 2.61393 14.8848C1.85699 14.1278 1.25977 13.2424 0.822266 12.2285C0.384766 11.2146 0.166016 10.1382 0.166016 8.99935C0.166016 7.84657 0.384766 6.76671 0.822266 5.75977C1.25977 4.75282 1.85699 3.87088 2.61393 3.11393C3.37088 2.35699 4.25629 1.75977 5.27018 1.32227C6.28407 0.884766 7.36046 0.666016 8.49935 0.666016C9.65213 0.666016 10.732 0.884766 11.7389 1.32227C12.7459 1.75977 13.6278 2.35699 14.3848 3.11393C15.1417 3.87088 15.7389 4.75282 16.1764 5.75977C16.6139 6.76671 16.8327 7.84657 16.8327 8.99935C16.8327 10.1382 16.6139 11.2146 16.1764 12.2285C15.7389 13.2424 15.1417 14.1278 14.3848 14.8848C13.6278 15.6417 12.7459 16.2389 11.7389 16.6764C10.732 17.1139 9.65213 17.3327 8.49935 17.3327ZM8.49935 15.6243C8.86046 15.1243 9.17296 14.6035 9.43685 14.0618C9.70074 13.5202 9.91602 12.9438 10.0827 12.3327H6.91602C7.08268 12.9438 7.29796 13.5202 7.56185 14.0618C7.82574 14.6035 8.13824 15.1243 8.49935 15.6243ZM6.33268 15.291C6.08268 14.8327 5.86393 14.357 5.67643 13.8639C5.48893 13.3709 5.33268 12.8605 5.20768 12.3327H2.74935C3.15213 13.0271 3.6556 13.6313 4.25977 14.1452C4.86393 14.6591 5.5549 15.041 6.33268 15.291ZM10.666 15.291C11.4438 15.041 12.1348 14.6591 12.7389 14.1452C13.3431 13.6313 13.8466 13.0271 14.2493 12.3327H11.791C11.666 12.8605 11.5098 13.3709 11.3223 13.8639C11.1348 14.357 10.916 14.8327 10.666 15.291ZM2.04102 10.666H4.87435C4.83268 10.3882 4.80143 10.1139 4.7806 9.8431C4.75977 9.57227 4.74935 9.29102 4.74935 8.99935C4.74935 8.70768 4.75977 8.42643 4.7806 8.1556C4.80143 7.88477 4.83268 7.61046 4.87435 7.33268H2.04102C1.97157 7.61046 1.91949 7.88477 1.88477 8.1556C1.85004 8.42643 1.83268 8.70768 1.83268 8.99935C1.83268 9.29102 1.85004 9.57227 1.88477 9.8431C1.91949 10.1139 1.97157 10.3882 2.04102 10.666ZM6.54102 10.666H10.4577C10.4993 10.3882 10.5306 10.1139 10.5514 9.8431C10.5723 9.57227 10.5827 9.29102 10.5827 8.99935C10.5827 8.70768 10.5723 8.42643 10.5514 8.1556C10.5306 7.88477 10.4993 7.61046 10.4577 7.33268H6.54102C6.49935 7.61046 6.4681 7.88477 6.44727 8.1556C6.42643 8.42643 6.41602 8.70768 6.41602 8.99935C6.41602 9.29102 6.42643 9.57227 6.44727 9.8431C6.4681 10.1139 6.49935 10.3882 6.54102 10.666ZM12.1243 10.666H14.9577C15.0271 10.3882 15.0792 10.1139 15.1139 9.8431C15.1487 9.57227 15.166 9.29102 15.166 8.99935C15.166 8.70768 15.1487 8.42643 15.1139 8.1556C15.0792 7.88477 15.0271 7.61046 14.9577 7.33268H12.1243C12.166 7.61046 12.1973 7.88477 12.2181 8.1556C12.2389 8.42643 12.2493 8.70768 12.2493 8.99935C12.2493 9.29102 12.2389 9.57227 12.2181 9.8431C12.1973 10.1139 12.166 10.3882 12.1243 10.666ZM11.791 5.66602H14.2493C13.8466 4.97157 13.3431 4.3674 12.7389 3.85352C12.1348 3.33963 11.4438 2.95768 10.666 2.70768C10.916 3.16602 11.1348 3.64171 11.3223 4.13477C11.5098 4.62782 11.666 5.13824 11.791 5.66602ZM6.91602 5.66602H10.0827C9.91602 5.0549 9.70074 4.47852 9.43685 3.93685C9.17296 3.39518 8.86046 2.87435 8.49935 2.37435C8.13824 2.87435 7.82574 3.39518 7.56185 3.93685C7.29796 4.47852 7.08268 5.0549 6.91602 5.66602ZM2.74935 5.66602H5.20768C5.33268 5.13824 5.48893 4.62782 5.67643 4.13477C5.86393 3.64171 6.08268 3.16602 6.33268 2.70768C5.5549 2.95768 4.86393 3.33963 4.25977 3.85352C3.6556 4.3674 3.15213 4.97157 2.74935 5.66602Z" fill="#DD8D0C"/>
</svg>
