<svg width="21" height="20" viewBox="0 0 21 20" fill="none" xmlns="http://www.w3.org/2000/svg">
<mask id="mask0_175_296" style="mask-type:alpha" maskUnits="userSpaceOnUse" x="0" y="0" width="21" height="20">
<rect x="0.5" width="20" height="20" fill="#D9D9D9"/>
</mask>
<g mask="url(#mask0_175_296)">
<path d="M3.83268 16.6673C3.37435 16.6673 2.98199 16.5041 2.6556 16.1777C2.32921 15.8513 2.16602 15.459 2.16602 15.0007V5.00065C2.16602 4.54232 2.32921 4.14996 2.6556 3.82357C2.98199 3.49718 3.37435 3.33398 3.83268 3.33398H17.166C17.6243 3.33398 18.0167 3.49718 18.3431 3.82357C18.6695 4.14996 18.8327 4.54232 18.8327 5.00065V15.0007C18.8327 15.459 18.6695 15.8513 18.3431 16.1777C18.0167 16.5041 17.6243 16.6673 17.166 16.6673H3.83268ZM10.4993 10.834L3.83268 6.66732V15.0007H17.166V6.66732L10.4993 10.834ZM10.4993 9.16732L17.166 5.00065H3.83268L10.4993 9.16732ZM3.83268 6.66732V5.00065V15.0007V6.66732Z" fill="#DD8D0C"/>
</g>
</svg>
